# xmcd
#
# Track frame offsets: 
#        150
#        29597
#        47061
#        66409
#        87995
#        110379
#        140456
#        157055
#        178496
#        202588
#
# Disc length: 2956 seconds
#
# Revision: 0
# Processed by: cddbd v1.5.2PL0 Copyright (c) Steve Scherf et al.
# Submitted via: ExactAudioCopy v1.3
#
DISCID=8f0b8a0a
DTITLE=Layla Zoe - Gemini [Disk 2]
DYEAR=2018
DGENRE=Blues Rock
TTITLE0=Weakness
TTITLE1=Dark World
TTITLE2=Ghost Train
TTITLE3=Bitch With The Head Of Red
TTITLE4=Gemini
TTITLE5=Roses And Lavender
TTITLE6=White Dog
TTITLE7=Automatic Gun
TTITLE8=Are You Still Alive Inside
TTITLE9=Little Sister
EXTD=
EXTT0=
EXTT1=
EXTT2=
EXTT3=
EXTT4=
EXTT5=
EXTT6=
EXTT7=
EXTT8=
EXTT9=
PLAYORDER=
